<?xml version="1.0" encoding="UTF-8" standalone="no"?>
<!DOCTYPE svg PUBLIC "-//W3C//DTD SVG 1.1//EN"
 "http://www.w3.org/Graphics/SVG/1.1/DTD/svg11.dtd">
<!-- Generated by graphviz version 2.43.0 (0)
 -->
<!-- Title: %3 Pages: 1 -->
<svg width="4489pt" height="404pt"
 viewBox="0.00 0.00 4489.05 404.00" xmlns="http://www.w3.org/2000/svg" xmlns:xlink="http://www.w3.org/1999/xlink">
<g id="graph0" class="graph" transform="scale(1 1) rotate(0) translate(4 400)">
<title>%3</title>
<polygon fill="white" stroke="transparent" points="-4,4 -4,-400 4485.05,-400 4485.05,4 -4,4"/>
<!-- [root] google_compute_firewall.mynetwork&#45;allow&#45;http&#45;ssh&#45;rdp&#45;icmp (expand) -->
<g id="node1" class="node">
<title>[root] google_compute_firewall.mynetwork&#45;allow&#45;http&#45;ssh&#45;rdp&#45;icmp (expand)</title>
<polygon fill="none" stroke="black" points="2468.53,-252 2018.53,-252 2018.53,-216 2468.53,-216 2468.53,-252"/>
<text text-anchor="middle" x="2243.53" y="-230.3" font-family="Times,serif" font-size="14.00">google_compute_firewall.mynetwork&#45;allow&#45;http&#45;ssh&#45;rdp&#45;icmp</text>
</g>
<!-- [root] google_compute_network.mynetwork (expand) -->
<g id="node2" class="node">
<title>[root] google_compute_network.mynetwork (expand)</title>
<polygon fill="none" stroke="black" points="2384.53,-108 2102.53,-108 2102.53,-72 2384.53,-72 2384.53,-108"/>
<text text-anchor="middle" x="2243.53" y="-86.3" font-family="Times,serif" font-size="14.00">google_compute_network.mynetwork</text>
</g>
<!-- [root] google_compute_firewall.mynetwork&#45;allow&#45;http&#45;ssh&#45;rdp&#45;icmp (expand)&#45;&gt;[root] google_compute_network.mynetwork (expand) -->
<g id="edge1" class="edge">
<title>[root] google_compute_firewall.mynetwork&#45;allow&#45;http&#45;ssh&#45;rdp&#45;icmp (expand)&#45;&gt;[root] google_compute_network.mynetwork (expand)</title>
<path fill="none" stroke="black" d="M2243.53,-215.87C2243.53,-191.67 2243.53,-147.21 2243.53,-118.39"/>
<polygon fill="black" stroke="black" points="2247.03,-118.19 2243.53,-108.19 2240.03,-118.19 2247.03,-118.19"/>
</g>
<!-- [root] provider[&quot;registry.terraform.io/hashicorp/google&quot;] -->
<g id="node5" class="node">
<title>[root] provider[&quot;registry.terraform.io/hashicorp/google&quot;]</title>
<polygon fill="none" stroke="black" points="2243.53,-36 1900,-18 2243.53,0 2587.06,-18 2243.53,-36"/>
<text text-anchor="middle" x="2243.53" y="-14.3" font-family="Times,serif" font-size="14.00">provider[&quot;registry.terraform.io/hashicorp/google&quot;]</text>
</g>
<!-- [root] google_compute_network.mynetwork (expand)&#45;&gt;[root] provider[&quot;registry.terraform.io/hashicorp/google&quot;] -->
<g id="edge2" class="edge">
<title>[root] google_compute_network.mynetwork (expand)&#45;&gt;[root] provider[&quot;registry.terraform.io/hashicorp/google&quot;]</title>
<path fill="none" stroke="black" d="M2243.53,-71.7C2243.53,-63.98 2243.53,-54.71 2243.53,-46.11"/>
<polygon fill="black" stroke="black" points="2247.03,-46.1 2243.53,-36.1 2240.03,-46.1 2247.03,-46.1"/>
</g>
<!-- [root] module.mynet&#45;eu&#45;vm.google_compute_instance.vm_instance (expand) -->
<g id="node3" class="node">
<title>[root] module.mynet&#45;eu&#45;vm.google_compute_instance.vm_instance (expand)</title>
<polygon fill="none" stroke="black" points="1684.53,-252 1238.53,-252 1238.53,-216 1684.53,-216 1684.53,-252"/>
<text text-anchor="middle" x="1461.53" y="-230.3" font-family="Times,serif" font-size="14.00">module.mynet&#45;eu&#45;vm.google_compute_instance.vm_instance</text>
</g>
<!-- [root] module.mynet&#45;eu&#45;vm.var.instance_name (expand) -->
<g id="node7" class="node">
<title>[root] module.mynet&#45;eu&#45;vm.var.instance_name (expand)</title>
<ellipse fill="none" stroke="black" cx="1364.53" cy="-162" rx="269.15" ry="18"/>
<text text-anchor="middle" x="1364.53" y="-158.3" font-family="Times,serif" font-size="14.00">[root] module.mynet&#45;eu&#45;vm.var.instance_name (expand)</text>
</g>
<!-- [root] module.mynet&#45;eu&#45;vm.google_compute_instance.vm_instance (expand)&#45;&gt;[root] module.mynet&#45;eu&#45;vm.var.instance_name (expand) -->
<g id="edge4" class="edge">
<title>[root] module.mynet&#45;eu&#45;vm.google_compute_instance.vm_instance (expand)&#45;&gt;[root] module.mynet&#45;eu&#45;vm.var.instance_name (expand)</title>
<path fill="none" stroke="black" d="M1437.55,-215.7C1425.22,-206.8 1410.01,-195.82 1396.67,-186.2"/>
<polygon fill="black" stroke="black" points="1398.39,-183.12 1388.23,-180.1 1394.29,-188.79 1398.39,-183.12"/>
</g>
<!-- [root] module.mynet&#45;eu&#45;vm.var.instance_network (expand) -->
<g id="node8" class="node">
<title>[root] module.mynet&#45;eu&#45;vm.var.instance_network (expand)</title>
<ellipse fill="none" stroke="black" cx="1933.53" cy="-162" rx="282.15" ry="18"/>
<text text-anchor="middle" x="1933.53" y="-158.3" font-family="Times,serif" font-size="14.00">[root] module.mynet&#45;eu&#45;vm.var.instance_network (expand)</text>
</g>
<!-- [root] module.mynet&#45;eu&#45;vm.google_compute_instance.vm_instance (expand)&#45;&gt;[root] module.mynet&#45;eu&#45;vm.var.instance_network (expand) -->
<g id="edge5" class="edge">
<title>[root] module.mynet&#45;eu&#45;vm.google_compute_instance.vm_instance (expand)&#45;&gt;[root] module.mynet&#45;eu&#45;vm.var.instance_network (expand)</title>
<path fill="none" stroke="black" d="M1576.39,-215.97C1649.49,-205.12 1743.87,-191.13 1817.25,-180.24"/>
<polygon fill="black" stroke="black" points="1818.08,-183.66 1827.46,-178.73 1817.05,-176.74 1818.08,-183.66"/>
</g>
<!-- [root] module.mynet&#45;eu&#45;vm.var.instance_type (expand) -->
<g id="node9" class="node">
<title>[root] module.mynet&#45;eu&#45;vm.var.instance_type (expand)</title>
<ellipse fill="none" stroke="black" cx="264.53" cy="-162" rx="264.55" ry="18"/>
<text text-anchor="middle" x="264.53" y="-158.3" font-family="Times,serif" font-size="14.00">[root] module.mynet&#45;eu&#45;vm.var.instance_type (expand)</text>
</g>
<!-- [root] module.mynet&#45;eu&#45;vm.google_compute_instance.vm_instance (expand)&#45;&gt;[root] module.mynet&#45;eu&#45;vm.var.instance_type (expand) -->
<g id="edge6" class="edge">
<title>[root] module.mynet&#45;eu&#45;vm.google_compute_instance.vm_instance (expand)&#45;&gt;[root] module.mynet&#45;eu&#45;vm.var.instance_type (expand)</title>
<path fill="none" stroke="black" d="M1238.17,-220.46C1051.22,-209.9 777.46,-194.27 538.53,-180 513.75,-178.52 487.71,-176.94 461.95,-175.36"/>
<polygon fill="black" stroke="black" points="461.9,-171.85 451.71,-174.73 461.47,-178.84 461.9,-171.85"/>
</g>
<!-- [root] module.mynet&#45;eu&#45;vm.var.instance_zone (expand) -->
<g id="node10" class="node">
<title>[root] module.mynet&#45;eu&#45;vm.var.instance_zone (expand)</title>
<ellipse fill="none" stroke="black" cx="812.53" cy="-162" rx="265.35" ry="18"/>
<text text-anchor="middle" x="812.53" y="-158.3" font-family="Times,serif" font-size="14.00">[root] module.mynet&#45;eu&#45;vm.var.instance_zone (expand)</text>
</g>
<!-- [root] module.mynet&#45;eu&#45;vm.google_compute_instance.vm_instance (expand)&#45;&gt;[root] module.mynet&#45;eu&#45;vm.var.instance_zone (expand) -->
<g id="edge7" class="edge">
<title>[root] module.mynet&#45;eu&#45;vm.google_compute_instance.vm_instance (expand)&#45;&gt;[root] module.mynet&#45;eu&#45;vm.var.instance_zone (expand)</title>
<path fill="none" stroke="black" d="M1303.59,-215.97C1198.02,-204.58 1060.17,-189.71 957.41,-178.63"/>
<polygon fill="black" stroke="black" points="957.58,-175.12 947.26,-177.53 956.83,-182.08 957.58,-175.12"/>
</g>
<!-- [root] module.mynet&#45;us&#45;vm.google_compute_instance.vm_instance (expand) -->
<g id="node4" class="node">
<title>[root] module.mynet&#45;us&#45;vm.google_compute_instance.vm_instance (expand)</title>
<polygon fill="none" stroke="black" points="3246.53,-252 2800.53,-252 2800.53,-216 3246.53,-216 3246.53,-252"/>
<text text-anchor="middle" x="3023.53" y="-230.3" font-family="Times,serif" font-size="14.00">module.mynet&#45;us&#45;vm.google_compute_instance.vm_instance</text>
</g>
<!-- [root] module.mynet&#45;us&#45;vm.var.instance_name (expand) -->
<g id="node13" class="node">
<title>[root] module.mynet&#45;us&#45;vm.var.instance_name (expand)</title>
<ellipse fill="none" stroke="black" cx="3120.53" cy="-162" rx="268.35" ry="18"/>
<text text-anchor="middle" x="3120.53" y="-158.3" font-family="Times,serif" font-size="14.00">[root] module.mynet&#45;us&#45;vm.var.instance_name (expand)</text>
</g>
<!-- [root] module.mynet&#45;us&#45;vm.google_compute_instance.vm_instance (expand)&#45;&gt;[root] module.mynet&#45;us&#45;vm.var.instance_name (expand) -->
<g id="edge14" class="edge">
<title>[root] module.mynet&#45;us&#45;vm.google_compute_instance.vm_instance (expand)&#45;&gt;[root] module.mynet&#45;us&#45;vm.var.instance_name (expand)</title>
<path fill="none" stroke="black" d="M3047.5,-215.7C3059.84,-206.8 3075.04,-195.82 3088.38,-186.2"/>
<polygon fill="black" stroke="black" points="3090.76,-188.79 3096.82,-180.1 3086.67,-183.12 3090.76,-188.79"/>
</g>
<!-- [root] module.mynet&#45;us&#45;vm.var.instance_network (expand) -->
<g id="node14" class="node">
<title>[root] module.mynet&#45;us&#45;vm.var.instance_network (expand)</title>
<ellipse fill="none" stroke="black" cx="2552.53" cy="-162" rx="281.35" ry="18"/>
<text text-anchor="middle" x="2552.53" y="-158.3" font-family="Times,serif" font-size="14.00">[root] module.mynet&#45;us&#45;vm.var.instance_network (expand)</text>
</g>
<!-- [root] module.mynet&#45;us&#45;vm.google_compute_instance.vm_instance (expand)&#45;&gt;[root] module.mynet&#45;us&#45;vm.var.instance_network (expand) -->
<g id="edge15" class="edge">
<title>[root] module.mynet&#45;us&#45;vm.google_compute_instance.vm_instance (expand)&#45;&gt;[root] module.mynet&#45;us&#45;vm.var.instance_network (expand)</title>
<path fill="none" stroke="black" d="M2908.91,-215.97C2835.96,-205.12 2741.78,-191.13 2668.56,-180.24"/>
<polygon fill="black" stroke="black" points="2668.78,-176.74 2658.37,-178.73 2667.75,-183.66 2668.78,-176.74"/>
</g>
<!-- [root] module.mynet&#45;us&#45;vm.var.instance_type (expand) -->
<g id="node15" class="node">
<title>[root] module.mynet&#45;us&#45;vm.var.instance_type (expand)</title>
<ellipse fill="none" stroke="black" cx="3670.53" cy="-162" rx="263.75" ry="18"/>
<text text-anchor="middle" x="3670.53" y="-158.3" font-family="Times,serif" font-size="14.00">[root] module.mynet&#45;us&#45;vm.var.instance_type (expand)</text>
</g>
<!-- [root] module.mynet&#45;us&#45;vm.google_compute_instance.vm_instance (expand)&#45;&gt;[root] module.mynet&#45;us&#45;vm.var.instance_type (expand) -->
<g id="edge16" class="edge">
<title>[root] module.mynet&#45;us&#45;vm.google_compute_instance.vm_instance (expand)&#45;&gt;[root] module.mynet&#45;us&#45;vm.var.instance_type (expand)</title>
<path fill="none" stroke="black" d="M3180.97,-215.97C3286.22,-204.58 3423.65,-189.71 3526.09,-178.63"/>
<polygon fill="black" stroke="black" points="3526.64,-182.09 3536.21,-177.53 3525.89,-175.13 3526.64,-182.09"/>
</g>
<!-- [root] module.mynet&#45;us&#45;vm.var.instance_zone (expand) -->
<g id="node16" class="node">
<title>[root] module.mynet&#45;us&#45;vm.var.instance_zone (expand)</title>
<ellipse fill="none" stroke="black" cx="4216.53" cy="-162" rx="264.55" ry="18"/>
<text text-anchor="middle" x="4216.53" y="-158.3" font-family="Times,serif" font-size="14.00">[root] module.mynet&#45;us&#45;vm.var.instance_zone (expand)</text>
</g>
<!-- [root] module.mynet&#45;us&#45;vm.google_compute_instance.vm_instance (expand)&#45;&gt;[root] module.mynet&#45;us&#45;vm.var.instance_zone (expand) -->
<g id="edge17" class="edge">
<title>[root] module.mynet&#45;us&#45;vm.google_compute_instance.vm_instance (expand)&#45;&gt;[root] module.mynet&#45;us&#45;vm.var.instance_zone (expand)</title>
<path fill="none" stroke="black" d="M3246.63,-220.44C3432.95,-209.88 3705.57,-194.26 3943.53,-180 3968.11,-178.53 3993.94,-176.95 4019.5,-175.38"/>
<polygon fill="black" stroke="black" points="4019.9,-178.86 4029.66,-174.75 4019.47,-171.87 4019.9,-178.86"/>
</g>
<!-- [root] module.mynet&#45;eu&#45;vm (close) -->
<g id="node6" class="node">
<title>[root] module.mynet&#45;eu&#45;vm (close)</title>
<ellipse fill="none" stroke="black" cx="1654.53" cy="-306" rx="170.07" ry="18"/>
<text text-anchor="middle" x="1654.53" y="-302.3" font-family="Times,serif" font-size="14.00">[root] module.mynet&#45;eu&#45;vm (close)</text>
</g>
<!-- [root] module.mynet&#45;eu&#45;vm (close)&#45;&gt;[root] module.mynet&#45;eu&#45;vm.google_compute_instance.vm_instance (expand) -->
<g id="edge3" class="edge">
<title>[root] module.mynet&#45;eu&#45;vm (close)&#45;&gt;[root] module.mynet&#45;eu&#45;vm.google_compute_instance.vm_instance (expand)</title>
<path fill="none" stroke="black" d="M1609.28,-288.59C1582.05,-278.71 1547.15,-266.06 1518.11,-255.52"/>
<polygon fill="black" stroke="black" points="1519.1,-252.16 1508.51,-252.04 1516.72,-258.74 1519.1,-252.16"/>
</g>
<!-- [root] module.mynet&#45;eu&#45;vm (expand) -->
<g id="node11" class="node">
<title>[root] module.mynet&#45;eu&#45;vm (expand)</title>
<ellipse fill="none" stroke="black" cx="1088.53" cy="-90" rx="180.87" ry="18"/>
<text text-anchor="middle" x="1088.53" y="-86.3" font-family="Times,serif" font-size="14.00">[root] module.mynet&#45;eu&#45;vm (expand)</text>
</g>
<!-- [root] module.mynet&#45;eu&#45;vm.var.instance_name (expand)&#45;&gt;[root] module.mynet&#45;eu&#45;vm (expand) -->
<g id="edge8" class="edge">
<title>[root] module.mynet&#45;eu&#45;vm.var.instance_name (expand)&#45;&gt;[root] module.mynet&#45;eu&#45;vm (expand)</title>
<path fill="none" stroke="black" d="M1299.47,-144.5C1257.92,-133.96 1204,-120.29 1161.07,-109.4"/>
<polygon fill="black" stroke="black" points="1161.8,-105.97 1151.25,-106.91 1160.08,-112.76 1161.8,-105.97"/>
</g>
<!-- [root] module.mynet&#45;eu&#45;vm.var.instance_network (expand)&#45;&gt;[root] google_compute_network.mynetwork (expand) -->
<g id="edge9" class="edge">
<title>[root] module.mynet&#45;eu&#45;vm.var.instance_network (expand)&#45;&gt;[root] google_compute_network.mynetwork (expand)</title>
<path fill="none" stroke="black" d="M2006.21,-144.59C2051.65,-134.33 2110.4,-121.06 2158.07,-110.3"/>
<polygon fill="black" stroke="black" points="2159.08,-113.66 2168.06,-108.04 2157.54,-106.83 2159.08,-113.66"/>
</g>
<!-- [root] module.mynet&#45;eu&#45;vm.var.instance_network (expand)&#45;&gt;[root] module.mynet&#45;eu&#45;vm (expand) -->
<g id="edge10" class="edge">
<title>[root] module.mynet&#45;eu&#45;vm.var.instance_network (expand)&#45;&gt;[root] module.mynet&#45;eu&#45;vm (expand)</title>
<path fill="none" stroke="black" d="M1768.85,-147.36C1613,-134.45 1381.38,-115.26 1232.66,-102.94"/>
<polygon fill="black" stroke="black" points="1232.8,-99.44 1222.55,-102.1 1232.22,-106.42 1232.8,-99.44"/>
</g>
<!-- [root] module.mynet&#45;eu&#45;vm.var.instance_type (expand)&#45;&gt;[root] module.mynet&#45;eu&#45;vm (expand) -->
<g id="edge11" class="edge">
<title>[root] module.mynet&#45;eu&#45;vm.var.instance_type (expand)&#45;&gt;[root] module.mynet&#45;eu&#45;vm (expand)</title>
<path fill="none" stroke="black" d="M422.91,-147.54C574.03,-134.71 799.63,-115.54 945.45,-103.15"/>
<polygon fill="black" stroke="black" points="946.14,-106.61 955.8,-102.28 945.54,-99.63 946.14,-106.61"/>
</g>
<!-- [root] module.mynet&#45;eu&#45;vm.var.instance_zone (expand)&#45;&gt;[root] module.mynet&#45;eu&#45;vm (expand) -->
<g id="edge12" class="edge">
<title>[root] module.mynet&#45;eu&#45;vm.var.instance_zone (expand)&#45;&gt;[root] module.mynet&#45;eu&#45;vm (expand)</title>
<path fill="none" stroke="black" d="M877.59,-144.5C919.13,-133.96 973.06,-120.29 1015.98,-109.4"/>
<polygon fill="black" stroke="black" points="1016.97,-112.76 1025.8,-106.91 1015.25,-105.97 1016.97,-112.76"/>
</g>
<!-- [root] module.mynet&#45;us&#45;vm (close) -->
<g id="node12" class="node">
<title>[root] module.mynet&#45;us&#45;vm (close)</title>
<ellipse fill="none" stroke="black" cx="2927.53" cy="-306" rx="169.77" ry="18"/>
<text text-anchor="middle" x="2927.53" y="-302.3" font-family="Times,serif" font-size="14.00">[root] module.mynet&#45;us&#45;vm (close)</text>
</g>
<!-- [root] module.mynet&#45;us&#45;vm (close)&#45;&gt;[root] module.mynet&#45;us&#45;vm.google_compute_instance.vm_instance (expand) -->
<g id="edge13" class="edge">
<title>[root] module.mynet&#45;us&#45;vm (close)&#45;&gt;[root] module.mynet&#45;us&#45;vm.google_compute_instance.vm_instance (expand)</title>
<path fill="none" stroke="black" d="M2950.77,-288.05C2963.17,-279.01 2978.62,-267.74 2992.09,-257.93"/>
<polygon fill="black" stroke="black" points="2994.15,-260.75 3000.17,-252.03 2990.03,-255.1 2994.15,-260.75"/>
</g>
<!-- [root] module.mynet&#45;us&#45;vm (expand) -->
<g id="node17" class="node">
<title>[root] module.mynet&#45;us&#45;vm (expand)</title>
<ellipse fill="none" stroke="black" cx="3395.53" cy="-90" rx="180.07" ry="18"/>
<text text-anchor="middle" x="3395.53" y="-86.3" font-family="Times,serif" font-size="14.00">[root] module.mynet&#45;us&#45;vm (expand)</text>
</g>
<!-- [root] module.mynet&#45;us&#45;vm.var.instance_name (expand)&#45;&gt;[root] module.mynet&#45;us&#45;vm (expand) -->
<g id="edge18" class="edge">
<title>[root] module.mynet&#45;us&#45;vm.var.instance_name (expand)&#45;&gt;[root] module.mynet&#45;us&#45;vm (expand)</title>
<path fill="none" stroke="black" d="M3185.35,-144.5C3226.75,-133.96 3280.48,-120.29 3323.25,-109.4"/>
<polygon fill="black" stroke="black" points="3324.2,-112.77 3333.03,-106.91 3322.48,-105.98 3324.2,-112.77"/>
</g>
<!-- [root] module.mynet&#45;us&#45;vm.var.instance_network (expand)&#45;&gt;[root] google_compute_network.mynetwork (expand) -->
<g id="edge19" class="edge">
<title>[root] module.mynet&#45;us&#45;vm.var.instance_network (expand)&#45;&gt;[root] google_compute_network.mynetwork (expand)</title>
<path fill="none" stroke="black" d="M2480.08,-144.59C2434.78,-134.33 2376.23,-121.06 2328.71,-110.3"/>
<polygon fill="black" stroke="black" points="2329.27,-106.84 2318.75,-108.04 2327.73,-113.66 2329.27,-106.84"/>
</g>
<!-- [root] module.mynet&#45;us&#45;vm.var.instance_network (expand)&#45;&gt;[root] module.mynet&#45;us&#45;vm (expand) -->
<g id="edge20" class="edge">
<title>[root] module.mynet&#45;us&#45;vm.var.instance_network (expand)&#45;&gt;[root] module.mynet&#45;us&#45;vm (expand)</title>
<path fill="none" stroke="black" d="M2716.82,-147.36C2872.29,-134.45 3103.37,-115.26 3251.73,-102.94"/>
<polygon fill="black" stroke="black" points="3252.15,-106.42 3261.83,-102.1 3251.57,-99.44 3252.15,-106.42"/>
</g>
<!-- [root] module.mynet&#45;us&#45;vm.var.instance_type (expand)&#45;&gt;[root] module.mynet&#45;us&#45;vm (expand) -->
<g id="edge21" class="edge">
<title>[root] module.mynet&#45;us&#45;vm.var.instance_type (expand)&#45;&gt;[root] module.mynet&#45;us&#45;vm (expand)</title>
<path fill="none" stroke="black" d="M3605.7,-144.5C3564.31,-133.96 3510.58,-120.29 3467.81,-109.4"/>
<polygon fill="black" stroke="black" points="3468.58,-105.98 3458.02,-106.91 3466.85,-112.77 3468.58,-105.98"/>
</g>
<!-- [root] module.mynet&#45;us&#45;vm.var.instance_zone (expand)&#45;&gt;[root] module.mynet&#45;us&#45;vm (expand) -->
<g id="edge22" class="edge">
<title>[root] module.mynet&#45;us&#45;vm.var.instance_zone (expand)&#45;&gt;[root] module.mynet&#45;us&#45;vm (expand)</title>
<path fill="none" stroke="black" d="M4058.72,-147.54C3908.15,-134.71 3683.37,-115.54 3538.09,-103.15"/>
<polygon fill="black" stroke="black" points="3538.03,-99.64 3527.77,-102.28 3537.43,-106.61 3538.03,-99.64"/>
</g>
<!-- [root] provider[&quot;registry.terraform.io/hashicorp/google&quot;] (close) -->
<g id="node18" class="node">
<title>[root] provider[&quot;registry.terraform.io/hashicorp/google&quot;] (close)</title>
<ellipse fill="none" stroke="black" cx="2243.53" cy="-306" rx="304.65" ry="18"/>
<text text-anchor="middle" x="2243.53" y="-302.3" font-family="Times,serif" font-size="14.00">[root] provider[&quot;registry.terraform.io/hashicorp/google&quot;] (close)</text>
</g>
<!-- [root] provider[&quot;registry.terraform.io/hashicorp/google&quot;] (close)&#45;&gt;[root] google_compute_firewall.mynetwork&#45;allow&#45;http&#45;ssh&#45;rdp&#45;icmp (expand) -->
<g id="edge23" class="edge">
<title>[root] provider[&quot;registry.terraform.io/hashicorp/google&quot;] (close)&#45;&gt;[root] google_compute_firewall.mynetwork&#45;allow&#45;http&#45;ssh&#45;rdp&#45;icmp (expand)</title>
<path fill="none" stroke="black" d="M2243.53,-287.7C2243.53,-279.98 2243.53,-270.71 2243.53,-262.11"/>
<polygon fill="black" stroke="black" points="2247.03,-262.1 2243.53,-252.1 2240.03,-262.1 2247.03,-262.1"/>
</g>
<!-- [root] provider[&quot;registry.terraform.io/hashicorp/google&quot;] (close)&#45;&gt;[root] module.mynet&#45;eu&#45;vm.google_compute_instance.vm_instance (expand) -->
<g id="edge24" class="edge">
<title>[root] provider[&quot;registry.terraform.io/hashicorp/google&quot;] (close)&#45;&gt;[root] module.mynet&#45;eu&#45;vm.google_compute_instance.vm_instance (expand)</title>
<path fill="none" stroke="black" d="M2083.39,-290.67C1961.45,-279.75 1792.84,-264.66 1661.95,-252.94"/>
<polygon fill="black" stroke="black" points="1662.07,-249.44 1651.79,-252.03 1661.44,-256.41 1662.07,-249.44"/>
</g>
<!-- [root] provider[&quot;registry.terraform.io/hashicorp/google&quot;] (close)&#45;&gt;[root] module.mynet&#45;us&#45;vm.google_compute_instance.vm_instance (expand) -->
<g id="edge25" class="edge">
<title>[root] provider[&quot;registry.terraform.io/hashicorp/google&quot;] (close)&#45;&gt;[root] module.mynet&#45;us&#45;vm.google_compute_instance.vm_instance (expand)</title>
<path fill="none" stroke="black" d="M2403.25,-290.67C2524.88,-279.75 2693.06,-264.66 2823.62,-252.94"/>
<polygon fill="black" stroke="black" points="2824.1,-256.41 2833.75,-252.03 2823.47,-249.44 2824.1,-256.41"/>
</g>
<!-- [root] root -->
<g id="node19" class="node">
<title>[root] root</title>
<ellipse fill="none" stroke="black" cx="2243.53" cy="-378" rx="58.49" ry="18"/>
<text text-anchor="middle" x="2243.53" y="-374.3" font-family="Times,serif" font-size="14.00">[root] root</text>
</g>
<!-- [root] root&#45;&gt;[root] module.mynet&#45;eu&#45;vm (close) -->
<g id="edge26" class="edge">
<title>[root] root&#45;&gt;[root] module.mynet&#45;eu&#45;vm (close)</title>
<path fill="none" stroke="black" d="M2189.96,-370.63C2096.22,-359.49 1900.35,-336.21 1773.29,-321.11"/>
<polygon fill="black" stroke="black" points="1773.46,-317.61 1763.12,-319.91 1772.64,-324.56 1773.46,-317.61"/>
</g>
<!-- [root] root&#45;&gt;[root] module.mynet&#45;us&#45;vm (close) -->
<g id="edge27" class="edge">
<title>[root] root&#45;&gt;[root] module.mynet&#45;us&#45;vm (close)</title>
<path fill="none" stroke="black" d="M2298.06,-371.42C2405.96,-360.38 2649.25,-335.48 2799.79,-320.07"/>
<polygon fill="black" stroke="black" points="2800.43,-323.53 2810.02,-319.03 2799.71,-316.56 2800.43,-323.53"/>
</g>
<!-- [root] root&#45;&gt;[root] provider[&quot;registry.terraform.io/hashicorp/google&quot;] (close) -->
<g id="edge28" class="edge">
<title>[root] root&#45;&gt;[root] provider[&quot;registry.terraform.io/hashicorp/google&quot;] (close)</title>
<path fill="none" stroke="black" d="M2243.53,-359.7C2243.53,-351.98 2243.53,-342.71 2243.53,-334.11"/>
<polygon fill="black" stroke="black" points="2247.03,-334.1 2243.53,-324.1 2240.03,-334.1 2247.03,-334.1"/>
</g>
</g>
</svg>
